HIERARCHY
ROOT Hips
{
	OFFSET -3.958830 18.904000 13.208200
	CHANNELS 6 Xposition Yposition Zposition Zrotation Yrotation Xrotation 
	JOINT LHipJoint
	{
		OFFSET 0.000000 0.000000 0.000000
		CHANNELS 3 Zrotation Yrotation Xrotation
		JOINT LeftUpLeg
		{
			OFFSET 1.800000 -1.400000 0.085000
			CHANNELS 3 Zrotation Yrotation Xrotation
			JOINT LeftLeg
			{
				OFFSET 2.215000 -6.000000 0.000000
				CHANNELS 3 Zrotation Yrotation Xrotation
				JOINT LeftFoot
				{
					OFFSET 2.500000 -6.900000 0.000000
					CHANNELS 3 Zrotation Yrotation Xrotation
					JOINT LeftToeBase
					{
						OFFSET 0.200000 -0.500000 1.950000
						CHANNELS 3 Zrotation Yrotation Xrotation
						End Site
						{
							OFFSET 0.000000 0.000000 0.000000
						}
					}
				}
			}
		}
	}
	JOINT RHipJoint
	{
		OFFSET 0.000000 0.000000 0.000000
		CHANNELS 3 Zrotation Yrotation Xrotation
		JOINT RightUpLeg
		{
			OFFSET -1.800000 -1.400000 0.085000
			CHANNELS 3 Zrotation Yrotation Xrotation
			JOINT RightLeg
			{
				OFFSET -2.215000 -6.000000 0.000000
				CHANNELS 3 Zrotation Yrotation Xrotation
				JOINT RightFoot
				{
					OFFSET -2.500000 -6.900000 0.000000
					CHANNELS 3 Zrotation Yrotation Xrotation
					JOINT RightToeBase
					{
						OFFSET -0.200000 -0.500000 1.950000
						CHANNELS 3 Zrotation Yrotation Xrotation
						End Site
						{
							OFFSET 0.000000 0.000000 0.000000
						}
					}
				}
			}
		}
	}
	JOINT LowerBack
	{
		OFFSET 0.000000 0.000000 0.000000
		CHANNELS 3 Zrotation Yrotation Xrotation
		JOINT Spine
		{
			OFFSET -0.087000 1.940000 -0.288900
			CHANNELS 3 Zrotation Yrotation Xrotation
			JOINT Spine1
			{
				OFFSET 0.000000 1.950000 0.060000
				CHANNELS 3 Zrotation Yrotation Xrotation
				JOINT Neck
				{
					OFFSET 0.000000 0.000000 0.000000
					CHANNELS 3 Zrotation Yrotation Xrotation
					JOINT Neck1
					{
						OFFSET 0.000000 1.600000 0.340000
						CHANNELS 3 Zrotation Yrotation Xrotation
						JOINT Head
						{
							OFFSET 0.000000 1.667000 -0.240000
							CHANNELS 3 Zrotation Yrotation Xrotation
							End Site
							{
								OFFSET 0.000000 0.000000 0.000000
							}
						}
					}
				}
				JOINT LeftShoulder
				{
					OFFSET 0.000000 0.000000 0.000000
					CHANNELS 3 Zrotation Yrotation Xrotation
					JOINT LeftArm
					{
						OFFSET 2.700000 1.550000 -0.730000
						CHANNELS 3 Zrotation Yrotation Xrotation
						JOINT LeftForeArm
						{
							OFFSET 5.450000 0.000000 0.000000
							CHANNELS 3 Zrotation Yrotation Xrotation
							JOINT LeftHand
							{
								OFFSET 3.450000 0.000000 0.000000
								CHANNELS 3 Zrotation Yrotation Xrotation
								JOINT LeftHandIndex1
								{
									OFFSET 0.750000 0.000000 0.000000
									CHANNELS 3 Zrotation Yrotation Xrotation
									End Site
									{
										OFFSET 0.000000 0.000000 0.000000
									}
								}
							}
						}
					}
				}
				JOINT RightShoulder
				{
					OFFSET 0.000000 0.000000 0.000000
					CHANNELS 3 Zrotation Yrotation Xrotation
					JOINT RightArm
					{
						OFFSET -2.700000 1.550000 -0.730000
						CHANNELS 3 Zrotation Yrotation Xrotation
						JOINT RightForeArm
						{
							OFFSET -5.450000 0.000000 0.000000
							CHANNELS 3 Zrotation Yrotation Xrotation
							JOINT RightHand
							{
								OFFSET -3.450000 0.000000 0.000000
								CHANNELS 3 Zrotation Yrotation Xrotation
								JOINT RightHandIndex1
								{
									OFFSET -0.750000 0.000000 0.000000
									CHANNELS 3 Zrotation Yrotation Xrotation
									End Site
									{
										OFFSET 0.000000 0.000000 0.000000
									}
								}
							}
						}
					}
				}
			}
		}
	}
}
MOTION
Frames: 6
Frame Time: 0.016667
-0.391740 17.388980 -0.540740 -8.549796 6.419222 -2.114218 -15.209367 12.808948 2.888249 19.835810 0.812004 -20.492619 -9.583995 10.661804 23.835084 -0.535171 7.051449 2.366644 -0.409190 -0.698900 -0.697060 18.215732 -11.146708 2.526786 -9.367410 2.145179 -11.623394 13.445779 -8.302524 19.616324 0.012342 -5.184093 2.832903 -0.080050 1.374130 0.148100 -3.522206 -0.277772 -7.163992 0.860863 3.752706 10.624306 -1.294555 5.520384 11.251270 0.926789 -0.988535 -8.753005 -1.671364 -2.424823 27.009614 1.077220 -8.159690 4.617370 -4.085002 4.357735 3.779987 -24.146610 0.823223 7.054911 155.301833 -24.707358 -97.567867 -4.491107 3.127821 0.125020 0.778350 -0.788740 0.264630 2.878690 -0.034160 4.665860 15.004436 12.220131 3.133063 -131.733816 53.950515 -104.364765 1.722468 -1.416455 -0.680950 0.736740 0.684870 0.064160 
-0.391660 17.394910 -0.579330 -8.746747 6.797111 -2.008884 -15.237051 12.808503 2.929611 19.870112 0.799930 -21.233257 -9.344203 10.592032 24.028514 -0.565459 7.024980 2.355183 -0.402370 -0.696830 -0.668520 18.192221 -11.085964 2.553807 -9.217654 2.317761 -11.876301 13.782584 -8.294293 19.472803 0.000718 -5.129019 2.846277 -0.083140 1.339370 0.135940 -3.455871 -0.375424 -7.229211 0.441546 3.773469 11.577318 -1.468210 5.722657 11.607597 1.202733 -0.810161 -9.081301 -1.417132 -2.740552 27.189393 1.208110 -8.225440 3.275800 -3.934023 3.527562 4.020371 -23.963049 1.294552 6.478353 155.471473 -24.153866 -97.771498 -4.458548 3.090964 0.168030 0.747190 -0.761050 0.247550 2.197412 0.764459 4.881549 13.722980 12.286709 2.442223 -128.477680 55.304793 -101.504184 1.722047 -1.260063 -0.689240 0.748970 0.684570 0.043400 
-0.390220 17.398180 -0.644980 -8.942004 7.376344 -1.675757 -15.263175 12.768213 3.006111 19.784043 0.778880 -22.582222 -9.123967 10.540103 24.370771 -0.593740 6.989659 2.332629 -0.385850 -0.676210 -0.645210 18.176267 -11.007542 2.590244 -9.046559 2.659725 -12.568533 14.125262 -8.226244 19.394645 -0.011203 -5.037664 2.860175 -0.080660 1.293890 0.127480 -3.406660 -0.442748 -7.319522 0.031461 3.904229 12.830896 -2.176008 6.155995 12.228837 1.536539 -0.588987 -9.467895 -1.122278 -3.284553 27.499891 2.015590 -8.735260 1.278650 -3.469034 2.254871 4.266577 -23.026305 1.136376 5.730103 155.366858 -23.518853 -97.547545 -4.413679 3.059435 0.213820 0.702220 -0.721730 0.231120 1.066471 1.999499 5.169804 11.691130 12.739754 1.712912 -122.371468 57.998669 -96.235569 1.704959 -0.928374 -0.684420 0.755780 0.683140 0.030060 
-0.395760 17.402310 -0.739720 -9.036130 8.641423 -1.665098 -15.302464 12.765336 3.085838 19.338384 0.657260 -24.232046 -8.502604 10.344692 25.037426 -0.640059 6.907896 2.321405 -0.355550 -0.641750 -0.609320 18.140061 -10.920526 2.635723 -9.046481 2.990852 -13.075239 14.617019 -8.211080 19.313522 -0.046077 -4.957848 2.866160 -0.075410 1.230980 0.121300 -3.321986 -0.598783 -7.439273 -0.680787 4.011414 15.146891 -2.945339 6.697264 12.909526 1.888318 -0.265524 -9.789321 -0.716520 -4.162414 27.972113 3.227740 -9.404320 -1.928880 -2.528992 0.969513 4.493124 -22.122930 -0.196518 5.227933 154.863712 -23.714865 -98.657599 -4.359119 3.009040 0.288550 0.637920 -0.659510 0.215710 -0.593698 3.250259 5.276276 9.857402 13.214533 0.344980 -111.500512 61.329241 -84.218337 1.522155 -0.068093 -0.678630 0.767760 0.676120 0.010580 
-0.409250 17.408410 -0.845620 -9.276894 9.853190 -2.165630 -15.312162 12.734072 3.155873 19.133989 0.673344 -25.516309 -7.901483 10.205789 25.829392 -0.650157 6.850641 2.292210 -0.321350 -0.601460 -0.570930 18.125813 -10.899235 2.698542 -8.887601 3.317870 -13.129775 15.003613 -8.182496 19.272980 -0.099451 -4.897662 2.862507 -0.083460 1.148680 0.127480 -3.314636 -0.578375 -7.606437 -0.999030 4.103191 18.698393 -4.205461 7.351375 12.919414 2.306710 0.004749 -9.771082 -0.294444 -4.837014 28.463747 5.145080 -9.843860 -5.680390 -1.050320 -0.867406 5.100106 -21.434031 -1.615480 4.235367 153.977815 -23.600589 -98.824849 -4.289171 2.980698 0.366220 0.558970 -0.580160 0.195920 -2.934998 5.268834 4.200261 9.625938 13.440361 -4.181349 -94.400028 68.285476 -64.359751 0.728597 1.477573 -0.649600 0.752370 0.662100 -0.004980 
-0.421780 17.411550 -0.943330 -9.426463 10.842489 -2.723657 -15.294708 12.675572 3.144658 18.655617 0.742808 -26.516096 -7.028768 9.986297 26.639144 -0.651114 6.744931 2.292492 -0.329200 -0.576500 -0.595500 18.141050 -10.916123 2.772544 -9.072051 3.663180 -13.092718 15.770989 -8.212104 19.075256 -0.132255 -4.912153 2.847396 -0.092800 1.106650 0.105990 -3.385656 -0.401722 -7.682662 -1.219390 4.439492 22.047179 -5.364533 8.269928 12.944505 2.549133 0.164727 -9.724420 0.094536 -5.246179 28.891835 7.501290 -10.311080 -8.259130 0.739453 -3.175589 5.974523 -21.150638 -3.397890 3.271176 153.004612 -23.161308 -98.399145 -4.235377 2.952289 0.402490 0.504550 -0.540330 0.177060 -5.312196 7.909879 2.908553 9.500536 12.646568 -10.062780 -62.746718 73.847198 -41.127664 0.855386 0.204035 -0.633860 0.751510 0.669640 0.002260 
